PathFileType	4	(X/Y/Z)	C:/Users/opensim2020/Desktop/walking_exp_matlab/subject02_walking08_straight_04.trc																																																																																																																									
DataRate	CameraRate	NumFrames	NumMarkers	Units	OrigDataRate	OrigDataStartFrame	OrigNumFrames																																																																																																																					
100	100	7	41	mm	100	3197	241																																																																																																																					
Frame#	Time	LFHD			RFHD			LBHD			RBHD			C7			T10			CLAV			STRN			RBAK			LSHO			LUPA			LELB			LFRM			LWRA			LWRB			LFIN			RSHO			RUPA			RELB			RFRM			RWRA			RWRB			RFIN			LASI			RASI			LPSI			RPSI			LTHI			LKNE			LTIB			LANK			LHEE			LTOE			RTHI			RKNE			RTIB			RANK			RHEE			RTOE			*39			*40		
		X1	Y1	Z1	X2	Y2	Z2	X3	Y3	Z3	X4	Y4	Z4	X5	Y5	Z5	X6	Y6	Z6	X7	Y7	Z7	X8	Y8	Z8	X9	Y9	Z9	X10	Y10	Z10	X11	Y11	Z11	X12	Y12	Z12	X13	Y13	Z13	X14	Y14	Z14	X15	Y15	Z15	X16	Y16	Z16	X17	Y17	Z17	X18	Y18	Z18	X19	Y19	Z19	X20	Y20	Z20	X21	Y21	Z21	X22	Y22	Z22	X23	Y23	Z23	X24	Y24	Z24	X25	Y25	Z25	X26	Y26	Z26	X27	Y27	Z27	X28	Y28	Z28	X29	Y29	Z29	X30	Y30	Z30	X31	Y31	Z31	X32	Y32	Z32	X33	Y33	Z33	X34	Y34	Z34	X35	Y35	Z35	X36	Y36	Z36	X37	Y37	Z37	X38	Y38	Z38	X39	Y39	Z39	X40	Y40	Z40	X41	Y41	Z41
																																																																																																																												
211	2.1	878.61224	1683.71936	-1448.2782	838.10394	1663.03845	-1310.84766	737.50861	1653.75879	-1493.01563	686.73535	1635.73645	-1358.42859	629.5769	1511.18799	-1419.64575	576.24445	1226.60364	-1409.27759	767.08124	1436.70239	-1435.0813	821.90118	1269.20422	-1424.05298	572.14111	1330.97217	-1347.68774	686.32538	1478.97131	-1600.19702	639.88757	1285.34839	-1681.2522	615.86682	1147.52295	-1696.18652	607.66345	1017.60504	-1720.01868	657.31213	885.02252	-1715.33325	604.61804	894.9353	-1734.32581	614.828	829.17993	-1745.50073	713.09393	1473.96228	-1236.16248	719.17908	1282.48315	-1145.72095	767.53503	1142.71558	-1125.37659	831.24695	1040.34253	-1112.33875	916.96533	937.76825	-1136.4751	875.56909	917.92535	-1102.8241	932.90442	873.61475	-1101.60181	821.18848	978.36389	-1551.87488	818.92639	954.43622	-1292.6637	607.55872	1008.78137	-1470.76038	602.2406	1007.93683	-1357.16565	828.00305	678.54211	-1629.38318	865.89716	480.22546	-1608.12769	871.435	286.81293	-1623.12903	949.06659	74.6826	-1610.88538	924.69885	35.48248	-1559.48718	1106.63916	73.27216	-1616.52075	682.35681	655.6994	-1240.11182	629.82227	451.30325	-1282.05212	532.034	288.47815	-1281.21985	459.43326	108.55202	-1321.19434	416.70682	60.77609	-1380.00574	596.06586	33.07314	-1293.69775	782.32935	1776.04211	-1377.20056	-2845.0769	1033.99878	3360.31763
212	2.11	886.83105	1682.69092	-1451.04956	846.2265	1662.09558	-1313.64734	745.79681	1652.79175	-1495.90417	694.92035	1634.90881	-1361.35242	637.85925	1510.10974	-1422.48938	585.16626	1225.31873	-1411.92822	775.5329	1435.84045	-1437.74927	830.73364	1268.47632	-1426.43799	581.30176	1329.65356	-1349.85718	694.56641	1477.79749	-1602.8551	647.81378	1284.2085	-1683.81311	623.84003	1146.31458	-1698.30945	615.59454	1016.34186	-1721.9751	665.26447	883.74146	-1717.32129	612.65546	893.68433	-1736.08203	622.70239	827.90466	-1747.36157	721.55457	1473.28723	-1238.87585	726.75909	1282.15955	-1148.37488	774.09277	1141.92432	-1128.14905	837.7066	1039.18433	-1114.88635	922.83331	936.28241	-1139.21509	881.47015	916.6698	-1105.36304	938.48157	871.96246	-1104.45239	831.06067	978.22687	-1553.95972	828.21796	953.77783	-1294.72705	617.22894	1007.64252	-1473.68958	611.35852	1006.88959	-1360.22693	837.97839	677.42334	-1631.48401	874.6012	478.85892	-1609.57617	878.08331	285.1958	-1624.11877	952.81464	71.9937	-1610.96411	928.08417	33.15329	-1559.63025	1110.27759	69.55052	-1616.90723	689.49835	655.49554	-1241.37036	636.20044	451.60245	-1282.49292	535.75519	289.86209	-1281.57874	460.67801	110.91121	-1320.86279	417.62704	63.46368	-1379.7074	596.15771	32.97401	-1293.41931	790.58917	1775.12671	-1380.10242	-2845.82715	1034.19189	3356.91748
213	2.12	895.1189	1681.60962	-1453.91125	854.36847	1661.12317	-1316.51392	754.07031	1651.75708	-1498.85779	703.04462	1633.93335	-1364.35803	646.1134	1508.81042	-1425.29675	594.17499	1223.94556	-1414.729	784.09265	1434.95959	-1440.52942	839.71124	1267.73413	-1428.90784	589.39203	1328.60205	-1352.98303	702.927	1476.60205	-1605.59229	656.02936	1282.99792	-1686.2417	631.97418	1145.04102	-1700.53174	623.80115	1015.02039	-1724.00256	673.64813	882.41791	-1719.32678	620.84406	892.35193	-1738.01721	630.95319	826.52527	-1749.13586	729.6994	1472.70544	-1241.84814	734.74426	1281.73193	-1151.0592	781.03479	1141.24902	-1130.68738	843.74432	1038.12549	-1117.62207	928.492	934.58478	-1141.89551	887.09454	915.33722	-1107.90161	943.93951	870.33563	-1107.29102	841.18616	978.10992	-1556.10034	836.97803	953.12274	-1296.78113	627.11591	1006.47693	-1476.91577	620.70691	1005.75635	-1363.56836	847.6098	676.05267	-1633.6925	882.88757	477.21381	-1611.12268	884.28735	283.38217	-1625.19519	956.12592	69.3105	-1611.15112	930.66229	32.11012	-1560.53625	1113.42664	65.60178	-1617.49512	696.94684	655.18823	-1242.96582	642.65771	451.5835	-1282.61499	539.77802	291.43765	-1282.01453	462.05441	113.50168	-1320.56543	418.5462	66.70417	-1379.35681	596.39557	33.07437	-1293.1853	798.82574	1774.13379	-1383.10437	-2845.15527	1034.09338	3360.2439
214	2.13	903.37427	1680.48962	-1456.82666	862.58881	1660.12354	-1319.47571	762.39911	1650.63879	-1501.9657	711.28461	1632.91931	-1367.42786	654.49939	1507.5542	-1428.34314	603.34119	1222.40332	-1417.70947	792.65875	1434.01013	-1443.35925	848.79346	1266.99268	-1431.46204	598.05042	1327.2157	-1355.91382	711.35614	1475.34753	-1608.42236	664.32281	1281.73022	-1688.75073	640.0542	1143.88354	-1703.13123	632.17731	1013.58771	-1726.02686	682.26636	881.10284	-1721.39319	629.42334	890.89709	-1739.75964	639.53479	825.13623	-1750.98816	738.0542	1471.95227	-1244.74268	742.59106	1281.1394	-1154.19312	787.24902	1140.31543	-1133.62048	849.84839	1036.89807	-1120.22144	934.20953	933.034	-1144.64746	892.76337	914.00696	-1110.37793	949.26477	868.41589	-1110.01685	851.60138	977.93756	-1558.25183	844.70685	951.97351	-1299.41089	637.34106	1005.20471	-1480.31274	630.33978	1004.44452	-1367.14331	856.99078	674.55127	-1635.97095	890.65576	475.36163	-1612.85217	890.0473	281.31598	-1626.1936	959.02301	66.51877	-1611.45093	932.88568	30.81805	-1560.65002	1116.40405	60.75467	-1618.25964	704.52606	655.1861	-1244.23767	649.58868	451.7558	-1283.02539	544.10516	293.08838	-1282.46472	463.62653	116.23524	-1320.19226	419.66986	70.37419	-1379.10388	596.56396	33.02338	-1292.93127	807.08551	1773.09229	-1386.16565	-2845.20947	1034.01782	3360.15771
215	2.14	911.71588	1679.3877	-1459.76367	870.65253	1659.10779	-1322.46814	770.7804	1649.47095	-1505.04944	719.40857	1631.81018	-1370.56934	662.83356	1506.23083	-1431.42749	612.4035	1220.89868	-1420.99084	801.32684	1433.0033	-1446.27588	858.01843	1266.26953	-1434.12793	606.80981	1325.73511	-1358.92773	719.89526	1474.06677	-1611.37	672.79437	1280.34766	-1691.54675	648.72479	1142.3009	-1705.28687	640.81879	1012.10144	-1728.2323	691.20258	879.72168	-1723.49561	638.31378	889.43427	-1741.73999	648.45166	823.61084	-1752.77271	745.87732	1471.09668	-1248.03491	750.25146	1280.58691	-1156.98975	794.04108	1139.42578	-1136.13098	855.8363	1035.56274	-1122.8031	939.4848	931.13068	-1147.31628	898.22089	912.56586	-1112.78906	954.50397	866.55432	-1112.80542	862.29669	977.72491	-1560.50195	856.0495	951.88007	-1301.22681	647.7395	1003.82867	-1484.09778	640.05695	1003.07574	-1371.00415	866.15332	672.95807	-1638.39124	897.7323	473.47815	-1615.12769	895.56134	279.20096	-1626.72681	962.01312	65.07333	-1611.92407	935.06775	31.75916	-1560.2594	1120.22876	52.17261	-1620.26379	712.37488	654.95563	-1245.99548	657.04126	451.68033	-1283.42932	548.70154	294.8952	-1282.94348	465.42645	119.32622	-1319.82422	420.99512	74.25394	-1378.57617	596.81952	33.10528	-1292.67065	815.32233	1772.21985	-1389.41479	-2845.27563	1033.9342	3360.3335
216	2.15	920.27557	1678.57117	-1462.69165	878.9339	1658.30676	-1325.40747	779.39478	1648.53638	-1508.22302	727.79663	1630.95349	-1373.75977	671.00854	1505.01428	-1434.66174	621.6488	1219.66309	-1424.44653	809.90509	1432.0813	-1449.30701	867.0401	1265.72437	-1436.84509	615.44745	1324.43262	-1362.55396	728.53729	1472.82324	-1614.50403	681.33112	1278.91553	-1694.34473	657.31946	1140.83142	-1708.00012	649.72699	1010.45715	-1730.49011	700.36841	878.23181	-1725.6333	647.30243	887.73944	-1743.75647	657.78735	821.95856	-1754.61816	753.96393	1470.30066	-1251.1521	757.27692	1279.91846	-1159.86353	800.08307	1138.37549	-1139.04468	861.73242	1034.34814	-1125.37769	944.93689	929.32947	-1149.97693	903.59601	911.07483	-1115.10254	959.49915	864.50171	-1115.55994	873.12329	977.45477	-1562.89014	864.53192	950.96454	-1304.09326	658.21136	1002.44745	-1488.07031	649.86804	1001.48541	-1375.00085	874.90338	672.13879	-1641.11169	904.13885	472.34427	-1617.98572	901.35754	277.60159	-1626.85193	965.2746	64.73761	-1613.54504	937.37994	34.07174	-1561.60718	1123.87695	42.88236	-1622.02051	720.5191	654.82947	-1247.52783	665.16956	451.91464	-1283.83752	553.95825	296.81036	-1283.26392	467.37158	122.79279	-1319.38306	422.45096	78.5471	-1378.24329	596.97522	33.05312	-1292.44897	823.63141	1771.23804	-1392.52112	-2845.83105	1034.21667	3357.13208
217	2.16	929.13232	1678.1261	-1465.58545	887.24634	1657.7749	-1328.36353	788.19104	1648.01038	-1511.44287	736.23932	1630.46252	-1377.15527	679.45087	1504.24048	-1438.16321	630.78247	1218.71082	-1428.04272	818.44061	1431.53809	-1452.37366	875.90271	1265.37207	-1439.58264	624.30005	1323.18518	-1366.02991	737.15417	1471.59888	-1617.80994	690.09174	1277.43994	-1697.3667	666.30927	1139.21741	-1710.52625	658.92236	1008.84637	-1732.85828	709.87787	876.78864	-1727.71924	656.72595	886.05688	-1745.62634	667.29968	820.34662	-1756.50256	761.87433	1469.48901	-1254.18604	764.95471	1279.09033	-1162.57007	806.39435	1137.22046	-1141.74231	867.50916	1032.86658	-1127.86438	949.86841	927.27838	-1152.66943	908.83484	909.55426	-1117.44019	964.37408	862.44482	-1118.19751	884.15027	977.19244	-1565.39026	874.63446	950.36401	-1306.6593	668.7533	1001.25494	-1492.24316	659.67542	999.86182	-1379.13904	883.36871	672.34918	-1644.12537	911.02209	472.13367	-1621.30481	907.93372	277.466	-1627.22632	969.68292	64.04685	-1615.44482	939.17017	35.37469	-1564.4032	1128.7655	38.19872	-1623.04077	729.27118	654.78162	-1249.36877	673.67358	451.85043	-1284.43408	559.6546	298.96057	-1283.67688	470.03494	126.63612	-1318.76672	424.45767	83.30198	-1377.5802	597.33124	33.11393	-1292.25818	832.05713	1770.64551	-1395.63611	-2845.23413	1033.92529	3360.17725
